<?xml version="1.0" encoding="utf-8"?>
<!-- Generator: Adobe Illustrator 23.0.2, SVG Export Plug-In . SVG Version: 6.00 Build 0)  -->
<svg version="1.1" id="图层_1" xmlns="http://www.w3.org/2000/svg" xmlns:xlink="http://www.w3.org/1999/xlink" x="0px" y="0px"
	 viewBox="0 0 512 128" style="enable-background:new 0 0 512 128;" xml:space="preserve">
<style type="text/css">
	.st0{fill:#C31A1F;}
</style>
<polygon points="55.6,119.6 133,120.1 101.1,66.3 133.7,9.6 119.1,9.5 86.5,66.1 110.5,104.4 63,104.7 "/>
<polygon class="st0" points="49.8,24.3 73.2,64.5 40.2,119.5 26.3,119.5 59.1,64.3 27,8.9 104.7,9.4 96.4,24.6 "/>
<g>
	<path d="M176.6,39.7h-14v-8.9h43v9h-13.8v58h-15.2L176.6,39.7L176.6,39.7z"/>
	<path d="M213.4,93.8c-3.2-2.9-4.7-7.3-4.7-13.2V66.5c0-5.9,1.6-10.2,4.8-13.2c3.2-2.9,8-4.4,14.5-4.4c6.8,0,11.4,1.5,14.2,4.5
		c2.8,3.1,4.1,7.7,4.1,13.7V74h-23.8v7.5c0,3.1,0.4,5.1,0.9,6.5c0.7,1.3,2.1,2.1,4.3,2.1c1.9,0,3.2-0.4,4-1.5
		c0.8-1.1,1.2-2.5,1.2-4.7v-4.1h13.2v3.3c0,4.9-1.5,8.6-4.7,11.3c-3.2,2.5-7.7,3.9-13.8,3.9C221.5,98.3,216.6,97,213.4,93.8z
		 M233.2,68.7v-4.5c0-2.4-0.4-4.3-1.2-5.3c-0.8-1.1-2.1-1.6-4.1-1.6s-3.3,0.5-4.1,1.7c-0.8,1.2-1.2,3.3-1.2,6.5v3.3L233.2,68.7
		L233.2,68.7z"/>
	<path d="M256.4,49.8h14.1v7.3c3.7-5.3,7.9-7.9,12.5-7.9c0.5,0,1.3,0.1,2.3,0.3v10.8c-1.3-0.4-2.9-0.5-4.3-0.5
		c-2.1,0-4.1,0.4-5.7,1.3c-1.6,0.8-3.2,2.3-4.7,4v32.7h-14.1L256.4,49.8L256.4,49.8z"/>
	<path d="M296.6,96.6c-2-1.2-3.5-2.5-4.5-4.3c-1.1-1.7-1.6-3.6-1.6-5.5c0-3.6,1.1-6.5,3.1-8.8c2-2.3,4.4-4.1,7.3-5.3
		c2.9-1.3,6.8-2.7,11.4-4.1l2.3-0.7v-4.1c0-2.3-0.4-3.9-0.9-4.9c-0.7-1.1-1.9-1.5-3.9-1.5c-3.2,0-4.9,1.7-5.1,5.3l-0.3,2.9
		l-13.3-0.4l0.1-1.6c0.4-5.1,2.3-8.6,5.6-10.9c3.2-2.3,7.9-3.5,14.1-3.5c5.9,0,10.2,1.3,13,3.9c2.8,2.5,4.3,6.1,4.3,10.9v22.1
		c0,3.2,0.4,7.2,1.1,11.7h-12.6c-0.7-3.1-1.2-5.2-1.3-6.8c-0.8,2.3-2.3,4-4.1,5.5c-2,1.5-4.5,2.3-7.7,2.3
		C300.8,98.3,298.6,97.8,296.6,96.6z M311.9,89c1.2-0.7,2-1.3,2.5-2.3V73.4c-7.2,3.2-10.9,6.8-10.9,10.8c0,1.7,0.4,3.2,1.3,4.1
		c0.8,1.1,2.1,1.5,3.6,1.5C309.8,90.1,310.9,89.7,311.9,89z"/>
	<path d="M342.2,95.3c-3.2-2.3-5.5-5.3-6.8-9.4l10.5-3.2c1.6,5.3,4.4,8,8.4,8c1.6,0,2.9-0.4,3.9-1.2c0.9-0.7,1.3-1.7,1.3-3.1
		c0-1.1-0.5-2.1-1.7-3.2c-1.2-1.2-2.8-2.4-4.9-4l-7.2-5.1c-3.1-2-5.2-4-6.7-5.9s-2.3-4.1-2.3-6.7c0-3.9,1.6-6.9,4.8-9.3
		c3.2-2.3,7.2-3.5,12.2-3.5c4.7,0,8.5,1.2,11.4,3.3c2.9,2.1,4.9,5.2,5.9,9l-9.2,3.2c-0.5-2.3-1.5-4.1-2.8-5.5
		c-1.3-1.3-2.9-2.1-4.9-2.1c-1.3,0-2.5,0.4-3.5,1.1c-0.8,0.7-1.3,1.6-1.3,2.8c0,0.9,0.4,1.9,1.3,2.8c0.9,1.1,2.4,2.3,4.4,3.5
		l7.2,5.3c3.2,2.3,5.5,4.1,7.2,6.1c1.7,2,2.5,4.3,2.5,7.1c0,4.1-1.7,7.2-5.1,9.4c-3.3,2.3-7.7,3.2-12.9,3.2
		C349.4,98.3,345.4,97.3,342.2,95.3z"/>
	<path d="M385.5,94.3c-2-2.5-3.1-6-3.2-10.6V57.1h-6v-7.3h6V35.5h14.1v14.1h9v7.3h-9v27.5c0,1.6,0.4,2.8,1.3,3.5
		c0.8,0.7,2.3,1.1,4.1,1.2c1.3,0,2.7,0,4.3-0.4v8.6c-3.3,0.4-6.7,0.5-9.8,0.5C391.2,98.2,387.5,96.7,385.5,94.3z"/>
	<path d="M419.1,96.6c-2-1.2-3.5-2.5-4.5-4.3c-1.1-1.7-1.6-3.6-1.6-5.5c0-3.6,1.1-6.5,3.1-8.8c2-2.3,4.4-4.1,7.3-5.3
		c2.9-1.3,6.8-2.7,11.4-4.1l2.3-0.7v-4.1c0-2.3-0.4-3.9-0.9-4.9c-0.7-1.1-1.9-1.5-3.9-1.5c-3.2,0-4.9,1.7-5.1,5.3l-0.3,2.9
		l-13.2-0.4l0.1-1.6c0.4-5.1,2.3-8.6,5.6-10.9c3.2-2.3,7.9-3.5,14.1-3.5c5.9,0,10.2,1.3,13,3.9c2.8,2.5,4.3,6.1,4.3,10.9v22.1
		c0,3.2,0.4,7.2,1.1,11.7h-12.6c-0.7-3.1-1.2-5.2-1.3-6.8c-0.8,2.3-2.3,4-4.1,5.5c-2,1.5-4.5,2.3-7.7,2.3
		C423.4,98.3,421.1,97.8,419.1,96.6z M434.4,89c1.2-0.7,2-1.3,2.5-2.3V73.4c-7.2,3.2-10.9,6.8-10.9,10.8c0,1.7,0.4,3.2,1.3,4.1
		c0.8,1.1,2.1,1.5,3.6,1.5C432.3,90.1,433.4,89.7,434.4,89z"/>
	<path d="M461.4,49.8h14v7.3c3.7-5.3,7.9-7.9,12.5-7.9c0.5,0,1.3,0.1,2.3,0.3v10.8c-1.3-0.4-2.9-0.5-4.3-0.5c-2.1,0-4.1,0.4-5.7,1.3
		c-1.6,0.9-3.2,2.3-4.7,4v32.7h-14.1V49.8L461.4,49.8z"/>
</g>
</svg>
